<?xml version="1.0" standalone="no"?>
<!DOCTYPE svg PUBLIC "-//W3C//DTD SVG 20010904//EN"
 "http://www.w3.org/TR/2001/REC-SVG-20010904/DTD/svg10.dtd">
<svg version="1.0" xmlns="http://www.w3.org/2000/svg"
 width="1983.000000pt" height="1983.000000pt" viewBox="0 0 1983.000000 1983.000000"
 preserveAspectRatio="xMidYMid meet">
<metadata>
Created by potrace 1.11, written by Peter Selinger 2001-2013
</metadata>
<g transform="translate(0.000000,1983.000000) scale(0.100000,-0.100000)"
fill="#000000" stroke="none">
<path d="M9328 18305 c-2 -2 -59 -6 -128 -9 -69 -3 -141 -8 -160 -10 -19 -3
-75 -7 -125 -11 -49 -3 -101 -8 -115 -10 -14 -2 -47 -6 -75 -9 -91 -10 -266
-34 -305 -41 -14 -2 -43 -7 -65 -10 -22 -3 -51 -7 -65 -10 -14 -2 -36 -6 -50
-9 -14 -2 -65 -11 -115 -21 -49 -9 -101 -19 -115 -22 -319 -59 -919 -230
-1230 -350 -191 -73 -343 -135 -403 -162 -37 -17 -69 -31 -72 -31 -13 0 -388
-182 -530 -258 -222 -118 -577 -327 -583 -344 -2 -4 -8 -8 -14 -8 -13 0 -327
-213 -423 -288 -5 -4 -53 -40 -105 -79 -285 -211 -562 -455 -860 -753 -129
-129 -253 -255 -275 -280 -197 -223 -300 -347 -448 -540 -70 -91 -131 -170
-137 -177 -5 -7 -10 -16 -10 -22 0 -5 -4 -11 -8 -13 -4 -1 -33 -39 -63 -83
-29 -44 -56 -82 -59 -85 -6 -5 -76 -110 -95 -141 -5 -10 -46 -75 -91 -145
-114 -181 -268 -452 -360 -634 -51 -102 -169 -353 -204 -435 -23 -55 -48 -113
-55 -130 -143 -325 -358 -992 -421 -1305 -3 -13 -14 -61 -24 -106 -11 -45 -22
-97 -25 -116 -3 -18 -10 -51 -15 -73 -5 -22 -11 -58 -14 -80 -4 -22 -8 -47
-11 -55 -2 -8 -6 -33 -10 -55 -3 -22 -10 -67 -15 -100 -8 -54 -12 -78 -25
-165 -2 -14 -7 -47 -10 -75 -3 -27 -8 -66 -11 -85 -3 -19 -7 -57 -9 -85 -3
-27 -7 -70 -10 -95 -9 -90 -25 -326 -30 -440 -6 -125 -6 -598 -1 -720 7 -157
23 -382 31 -440 2 -14 7 -59 10 -100 4 -41 9 -83 10 -92 2 -9 6 -43 10 -75 3
-32 8 -69 10 -83 3 -14 7 -41 9 -60 6 -44 14 -99 26 -170 5 -30 12 -71 15 -90
16 -93 88 -430 119 -555 225 -906 622 -1806 1139 -2580 55 -82 113 -168 129
-190 74 -102 261 -352 281 -375 12 -14 34 -42 49 -62 15 -20 33 -42 40 -50 7
-7 33 -38 58 -68 218 -266 622 -677 930 -946 25 -21 47 -41 50 -44 4 -5 239
-196 285 -233 85 -67 326 -242 374 -272 9 -5 18 -13 21 -16 4 -5 218 -146 266
-176 483 -296 775 -449 1205 -634 143 -60 561 -219 579 -219 6 0 18 -4 28 -10
42 -23 604 -183 717 -204 11 -2 38 -9 60 -14 48 -13 89 -22 130 -28 16 -2 37
-7 47 -10 9 -2 27 -7 40 -9 44 -9 193 -37 216 -41 132 -22 154 -26 247 -39 64
-9 100 -14 150 -20 28 -3 64 -8 80 -10 32 -4 97 -11 205 -21 36 -3 83 -7 105
-9 282 -26 1056 -26 1295 0 19 2 71 7 115 10 90 7 103 9 233 24 109 13 154 19
202 27 19 3 51 8 70 10 19 3 46 7 60 9 14 3 41 8 60 11 19 2 46 7 60 10 14 2
39 7 55 10 210 35 572 121 825 194 58 17 112 32 120 34 8 2 89 29 180 59 273
91 556 202 840 329 173 78 549 273 685 355 11 7 27 16 35 20 8 4 56 31 105 61
470 285 916 617 1320 985 190 173 563 555 671 687 16 19 31 37 35 40 5 4 77
91 188 225 9 11 59 76 111 145 52 69 98 127 101 130 6 5 171 244 255 370 85
126 204 324 329 545 94 167 275 539 357 735 22 52 46 109 53 125 7 17 25 62
40 100 15 39 31 79 36 90 26 59 112 312 168 495 23 74 48 155 56 180 49 159
147 581 171 730 3 19 7 43 10 52 7 23 10 42 24 133 7 44 14 89 16 100 3 17 23
166 50 384 3 25 7 70 10 100 2 31 6 81 9 112 6 59 11 152 21 354 12 278 3 732
-22 1000 -3 33 -7 80 -9 105 -3 41 -7 78 -20 195 -12 102 -36 275 -56 392 -12
70 -22 135 -23 143 -1 8 -5 26 -9 40 -3 14 -9 39 -11 55 -31 185 -130 580
-208 830 -18 55 -33 105 -34 110 -5 23 -111 330 -125 360 -4 11 -17 43 -27 70
-10 28 -22 59 -27 70 -4 11 -9 25 -10 30 -2 6 -38 91 -80 190 -109 255 -295
631 -408 823 -20 35 -37 64 -37 66 0 2 -110 186 -145 241 -84 134 -261 395
-345 510 -91 124 -284 372 -299 385 -4 3 -26 30 -51 60 -25 30 -47 57 -50 60
-3 3 -34 39 -70 80 -111 128 -159 179 -365 385 -266 266 -266 266 -635 579
-14 11 -45 37 -70 56 -25 19 -47 37 -50 40 -6 7 -259 195 -325 242 -161 114
-482 321 -610 393 -27 16 -97 55 -155 88 -105 60 -470 245 -565 287 -27 12
-72 32 -100 45 -65 30 -293 125 -300 125 -3 0 -24 9 -48 19 -23 11 -82 34
-132 51 -49 18 -99 36 -110 41 -57 24 -433 143 -570 179 -130 35 -260 69 -286
74 -13 3 -42 10 -64 15 -130 29 -273 57 -480 95 -87 15 -279 43 -360 51 -33 4
-67 8 -75 10 -8 2 -51 7 -95 11 -44 3 -87 8 -95 9 -9 2 -65 6 -125 10 -61 4
-123 9 -140 12 -35 5 -842 13 -847 8z"/>
</g>
</svg>
